<svg xmlns="http://www.w3.org/2000/svg" width="16.85" height="14.737" viewBox="0 0 16.85 14.737">
  <g id="noun_Love_1033573" transform="translate(1.039 1)">
    <path id="Path_2496" data-name="Path 2496" d="M-933.057,961.551a3.934,3.934,0,0,0-2.784-1.151,3.961,3.961,0,0,0-2.784,1.151l-.653.653-.653-.653a3.934,3.934,0,0,0-2.784-1.151,4.008,4.008,0,0,0-3.826,2.878,3.642,3.642,0,0,0,.9,3.686l5.88,5.88a.648.648,0,0,0,.933,0l5.74-5.74A3.887,3.887,0,0,0-933.057,961.551Z" transform="translate(946.717 -960.4)" fill="none" stroke="#fff" stroke-width="2"/>
  </g>
</svg>
