<svg xmlns="http://www.w3.org/2000/svg" width="16.229" height="10.386" viewBox="0 0 16.229 10.386">
  <g id="noun_show_3052148" transform="translate(-1.999 -7.09)" opacity="0.61">
    <g id="_09" data-name="09" transform="translate(1.999 7.09)">
      <circle id="Ellipse_321" data-name="Ellipse 321" cx="1.739" cy="1.739" r="1.739" transform="translate(6.376 3.425)" fill="#fefefe"/>
      <path id="Path_7949" data-name="Path 7949" d="M17.5,10.515l-.632-.632a9.557,9.557,0,0,0-13.5,0l-.632.632a2.5,2.5,0,0,0,0,3.535l.632.632a9.557,9.557,0,0,0,13.5,0l.632-.632a2.5,2.5,0,0,0,0-3.535Zm-7.384,4.637a2.9,2.9,0,1,1,2.9-2.9,2.9,2.9,0,0,1-2.9,2.9Z" transform="translate(-1.999 -7.09)" fill="#fefefe"/>
    </g>
  </g>
</svg>
