<svg id="Group_1338" data-name="Group 1338" xmlns="http://www.w3.org/2000/svg" xmlns:xlink="http://www.w3.org/1999/xlink" width="15.221" height="14.528" viewBox="0 0 15.221 14.528">
  <defs>
    <radialGradient id="radial-gradient" cx="0.17" cy="1.012" r="1.096" gradientUnits="objectBoundingBox">
      <stop offset="0.355" stop-color="#dbdbdb"/>
      <stop offset="0.549" stop-color="#d4d4d4"/>
      <stop offset="0.823" stop-color="#c2c2c2"/>
      <stop offset="0.995" stop-color="#b3b3b3"/>
    </radialGradient>
    <radialGradient id="radial-gradient-2" cx="0.09" cy="1.284" r="1.584" xlink:href="#radial-gradient"/>
  </defs>
  <path id="Path_6588" data-name="Path 6588" d="M109.235,86.079c.066.458-.218.662-.632.455L105.166,84.8a1.908,1.908,0,0,0-1.507-.008L100.2,86.5c-.415.2-.7,0-.627-.462l.585-3.8A1.909,1.909,0,0,0,99.7,80.8L97.017,78.04c-.323-.333-.213-.665.243-.739l3.8-.619a1.914,1.914,0,0,0,1.224-.882l1.792-3.406c.216-.41.565-.407.778,0l1.763,3.421a1.9,1.9,0,0,0,1.215.891l3.794.652c.457.079.563.414.237.742l-2.708,2.735a1.908,1.908,0,0,0-.473,1.432Z" transform="translate(-96.832 -72.088)" fill="url(#radial-gradient)"/>
  <path id="Path_6589" data-name="Path 6589" d="M104.465,72.277c.072,0,.155.077.222.207l1.763,3.422a2.088,2.088,0,0,0,1.351.99l3.794.653c.143.023.242.078.264.148s-.026.17-.129.274l-2.709,2.735A2.089,2.089,0,0,0,108.5,82.3l.552,3.808a.369.369,0,0,1-.042.281.125.125,0,0,1-.106.039.51.51,0,0,1-.213-.061l-3.439-1.732a2.088,2.088,0,0,0-1.675-.008l-3.452,1.7a.5.5,0,0,1-.211.061.122.122,0,0,1-.107-.042.364.364,0,0,1-.039-.28l.585-3.8a2.082,2.082,0,0,0-.512-1.6l-2.686-2.759c-.1-.1-.149-.208-.126-.275s.122-.122.265-.146l3.8-.619a2.087,2.087,0,0,0,1.359-.979l1.792-3.407c.068-.127.151-.2.222-.2m0-.189c-.139,0-.28.1-.389.307L102.284,75.8a1.914,1.914,0,0,1-1.224.882l-3.8.619c-.457.074-.566.406-.243.739L99.7,80.8a1.909,1.909,0,0,1,.46,1.435l-.585,3.8c-.052.339.088.54.333.54a.666.666,0,0,0,.294-.078l3.454-1.7a1.923,1.923,0,0,1,1.507.008l3.437,1.732a.687.687,0,0,0,.3.081c.242,0,.382-.2.334-.536l-.552-3.809a1.908,1.908,0,0,1,.473-1.432l2.708-2.735c.325-.328.219-.662-.237-.742l-3.794-.652a1.9,1.9,0,0,1-1.215-.891L104.855,72.4c-.107-.207-.247-.31-.39-.31Z" transform="translate(-96.832 -72.088)" opacity="0.5" fill="url(#radial-gradient-2)" style="mix-blend-mode: multiply;isolation: isolate"/>
</svg>
